<svg id="图层_1" data-name="图层 1" xmlns="http://www.w3.org/2000/svg" xmlns:xlink="http://www.w3.org/1999/xlink" viewBox="0 0 143.06 133.43">
  <defs>
    <style>
      .cls-1 {
        fill: url(#未命名的渐变);
      }

      .cls-2 {
        fill: #e5a0a6;
      }

      .cls-3 {
        fill: url(#未命名的渐变_2);
      }

      .cls-4 {
        fill: #fcddd2;
      }

      .cls-5 {
        fill: #fff;
      }

      .cls-14, .cls-19, .cls-6 {
        opacity: 0.2;
      }

      .cls-16, .cls-19, .cls-24, .cls-7 {
        fill: #525d7a;
      }

      .cls-8 {
        fill: url(#未命名的渐变_3);
      }

      .cls-9 {
        fill: #f6f6f6;
      }

      .cls-10 {
        fill: #56408b;
      }

      .cls-11 {
        fill: #e6e7e8;
      }

      .cls-12 {
        fill: url(#未命名的渐变_4);
      }

      .cls-13 {
        fill: #f8aa8f;
      }

      .cls-14 {
        fill: #231f20;
      }

      .cls-14, .cls-16, .cls-19, .cls-24 {
        isolation: isolate;
      }

      .cls-15 {
        fill: url(#未命名的渐变_5);
      }

      .cls-16, .cls-17 {
        opacity: 0.15;
      }

      .cls-18 {
        fill: url(#未命名的渐变_6);
      }

      .cls-20 {
        fill: url(#未命名的渐变_7);
      }

      .cls-21 {
        fill: #bbb3d1;
      }

      .cls-22 {
        fill: url(#未命名的渐变_8);
      }

      .cls-23 {
        fill: #7866a2;
      }

      .cls-24 {
        opacity: 0.3;
      }

      .cls-25 {
        fill: url(#未命名的渐变_9);
      }

      .cls-26 {
        fill: #f9d2c9;
      }

      .cls-27 {
        fill: #fdede9;
      }
    </style>
    <linearGradient id="未命名的渐变" x1="966.71" y1="471.88" x2="966.71" y2="594.59" gradientTransform="matrix(1, 0, 0, -1, 0, 1080)" gradientUnits="userSpaceOnUse">
      <stop offset="0" stop-color="#ad8fcf"/>
      <stop offset="0.03" stop-color="#af90cd"/>
      <stop offset="0.42" stop-color="#cd99b8"/>
      <stop offset="0.76" stop-color="#df9eab"/>
      <stop offset="1" stop-color="#e5a0a6"/>
    </linearGradient>
    <linearGradient id="未命名的渐变_2" data-name="未命名的渐变 2" x1="949.54" y1="543.95" x2="989.96" y2="543.95" gradientTransform="matrix(1, 0, 0, -1, 0, 1080)" gradientUnits="userSpaceOnUse">
      <stop offset="0" stop-color="#e5a0a6"/>
      <stop offset="0.4" stop-color="#ecadaa"/>
      <stop offset="1" stop-color="#fcc8b2"/>
    </linearGradient>
    <linearGradient id="未命名的渐变_3" data-name="未命名的渐变 3" x1="927.02" y1="489.98" x2="967.44" y2="489.98" gradientTransform="matrix(1, 0, 0, -1, 0, 1080)" gradientUnits="userSpaceOnUse">
      <stop offset="0" stop-color="#56408b"/>
      <stop offset="0.14" stop-color="#5c438f"/>
      <stop offset="0.34" stop-color="#6d4b99"/>
      <stop offset="0.55" stop-color="#8858aa"/>
      <stop offset="0.79" stop-color="#af6bc2"/>
      <stop offset="1" stop-color="#d77edb"/>
    </linearGradient>
    <linearGradient id="未命名的渐变_4" data-name="未命名的渐变 4" x1="1021.03" y1="473.94" x2="1032.6" y2="473.94" gradientTransform="matrix(1, 0, 0, -1, -889.55, 603.17)" xlink:href="#未命名的渐变_2"/>
    <linearGradient id="未命名的渐变_5" data-name="未命名的渐变 5" x1="1004.81" y1="472.84" x2="1017.36" y2="472.84" gradientTransform="matrix(1, 0, 0, -1, -889.55, 603.17)" xlink:href="#未命名的渐变_2"/>
    <linearGradient id="未命名的渐变_6" data-name="未命名的渐变 6" x1="1004" y1="532.21" x2="1019.64" y2="532.21" xlink:href="#未命名的渐变_2"/>
    <linearGradient id="未命名的渐变_7" data-name="未命名的渐变 7" x1="1007" y1="540.55" x2="1015.74" y2="540.55" gradientTransform="matrix(1, 0, 0, -1, -889.55, 603.17)" xlink:href="#未命名的渐变_2"/>
    <linearGradient id="未命名的渐变_8" data-name="未命名的渐变 8" x1="892.51" y1="491.76" x2="911.86" y2="491.76" gradientTransform="matrix(1, 0, 0, -1, -889.55, 603.17)" xlink:href="#未命名的渐变_2"/>
    <linearGradient id="未命名的渐变_9" data-name="未命名的渐变 9" x1="901.89" y1="492.99" x2="924.63" y2="492.99" xlink:href="#未命名的渐变_2"/>
  </defs>
  <path class="cls-1" d="M1018.24,514.55a20.14,20.14,0,0,1-5,13.32,56.89,56.89,0,1,1-28.54-28.54,20.23,20.23,0,0,1,33.55,15.22Zm5.38-29.14a5.37,5.37,0,1,0,5.37,5.37A5.37,5.37,0,0,0,1023.62,485.41Zm-39.14,6.15a2.27,2.27,0,1,0-2.27-2.27A2.27,2.27,0,0,0,984.48,491.56Z" transform="translate(-889.55 -476.83)"/>
  <path class="cls-2" d="M1007.3,477.4a.57.57,0,0,1-.57.57.56.56,0,0,1-.57-.57.57.57,0,0,1,.57-.57A.56.56,0,0,1,1007.3,477.4Z" transform="translate(-889.55 -476.83)"/>
  <g>
    <path id="path5043-4-6-5-1-0-2" class="cls-3" d="M990,520.63H960.2s2.44,7.91,0,10.35c-2.13,2.13-6.92-2.13-9.06,0s-2.13,6.92,0,9.06,6.92-2.13,9.06,0c2.44,2.44,0,10.35,0,10.35s7.91,2.44,10.35,0c2.13-2.13-2.13-6.92,0-9.06s6.92-2.13,9.06,0-2.13,6.92,0,9.06c2.44,2.44,10.35,0,10.35,0Q989.95,535.5,990,520.63Z" transform="translate(-889.55 -476.83)"/>
    <path class="cls-4" d="M960.2,520.63s.21.68.44,1.69h28v28.43c.82-.2,1.35-.36,1.35-.36V520.63Z" transform="translate(-889.55 -476.83)"/>
  </g>
  <g>
    <path id="path5043-4-6-5-1-0-2-2" data-name="path5043-4-6-5-1-0-2" class="cls-5" d="M999,610.25V580.5s-7.91,2.44-10.35,0c-2.13-2.13,2.13-6.92,0-9.06s-6.92-2.13-9.06,0,2.13,6.92,0,9.06c-2.44,2.44-10.35,0-10.35,0s-2.44,7.91,0,10.35c2.13,2.13,6.92-2.13,9.06,0s2.13,6.92,0,9.06-6.92-2.13-9.06,0c-2.44,2.44,0,10.35,0,10.35Z" transform="translate(-889.55 -476.83)"/>
    <g class="cls-6">
      <path class="cls-7" d="M997,581v27.21H968.71c.26,1.2.52,2,.52,2H999V580.5S998.15,580.75,997,581Z" transform="translate(-889.55 -476.83)"/>
    </g>
  </g>
  <g>
    <path id="path5043-37-6-7-7-2-9" class="cls-8" d="M927,605.44h29.76s-2.44-7.91,0-10.35c2.13-2.13,6.92,2.13,9.06,0s2.13-6.92,0-9.06-6.92,2.13-9.06,0c-2.44-2.44,0-10.35,0-10.35s-7.91-2.44-10.35,0c-2.13,2.13,2.13,6.92,0,9.06s-6.92,2.13-9.06,0,2.13-6.92,0-9.06c-2.44-2.44-10.35,0-10.35,0v29.76Z" transform="translate(-889.55 -476.83)"/>
    <g class="cls-6">
      <path class="cls-7" d="M929.38,603.07v-28c-1.38.29-2.37.59-2.37.59v29.75h29.76s-.3-1-.59-2.37Z" transform="translate(-889.55 -476.83)"/>
    </g>
  </g>
  <g>
    <rect class="cls-9" x="1026.1" y="601.77" width="3.82" height="3.94" transform="translate(-1047.25 2.82) rotate(-24.45)"/>
    <polygon class="cls-10" points="124.06 104.71 127.67 113.57 136.22 127.27 140.39 125.39 131.8 109.24 125.41 88.74 124.06 104.71"/>
    <polygon class="cls-11" points="136.26 127.15 135.97 127.28 134.61 130.59 133.85 131.74 131.48 132.39 131.49 133.36 134.28 133.42 142.88 129.79 143.06 128.63 141.87 125.95 141.12 125.82 140.53 126.08 139.78 128.03 137.08 129.19 136.26 127.15"/>
    <polygon class="cls-12" points="143.05 128.63 141.87 125.95 141.12 125.82 140.53 126.08 139.78 128.03 137.08 129.19 136.26 127.15 135.97 127.28 134.61 130.59 133.85 131.74 131.48 132.39 131.48 132.64 133.54 132.64 143.05 128.63"/>
    <rect class="cls-9" x="122.72" y="126.93" width="3.82" height="3.94"/>
    <path class="cls-13" d="M1005.06,558.23l5,28.75,2.19,18.18h4s.34-17-.82-19.3l.82-19.69h0a12.38,12.38,0,0,0,.36-5.95h0a4.4,4.4,0,0,0-1-2.14l-.13-.15Z" transform="translate(-889.55 -476.83)"/>
    <path class="cls-14" d="M1017.68,591.13a19.87,19.87,0,0,0-.91-5.45l.06-14.13-1.87-6-1.34,16,3.61,8.86Z" transform="translate(-889.55 -476.83)"/>
    <path class="cls-10" d="M1005.06,558.23l5,28.75,2.19,18.18h4s.34-17-.82-19.3l.82-19.69h0a12.38,12.38,0,0,0,.36-5.95h0a4.4,4.4,0,0,0-1-2.14l-.13-.15Z" transform="translate(-889.55 -476.83)"/>
    <polygon class="cls-11" points="122.19 128.33 121.87 128.33 119.29 130.8 115.19 132.36 115.19 133.42 127.18 133.42 127.81 132.43 127.81 129.49 127.18 129.07 126.54 129.07 125.05 130.55 122.12 130.52 122.19 128.33"/>
    <polygon class="cls-15" points="126.54 129.07 125.05 130.55 122.12 130.52 122.19 128.33 121.87 128.33 119.29 130.8 115.26 132.33 127.81 132.33 127.81 129.49 127.18 129.07 126.54 129.07"/>
    <rect class="cls-5" x="122.54" y="55.93" width="3.92" height="3.82"/>
    <path class="cls-16" d="M1012.12,534.08a5.15,5.15,0,0,0,3.16-2.14l-3.45.73Z" transform="translate(-889.55 -476.83)"/>
    <path class="cls-5" d="M1011.07,524.45l-.18,2.12a6.32,6.32,0,0,1-1.56,2.09s.14.57.53.6l0,2.75a1.34,1.34,0,0,0,1.34,1.35h1.29a5.18,5.18,0,0,0,4.92-3.58l1-3.1-1.45-3-3.64-.21A2.28,2.28,0,0,0,1011.07,524.45Z" transform="translate(-889.55 -476.83)"/>
    <g class="cls-17">
      <path class="cls-7" d="M1012.93,533.33a5.16,5.16,0,0,0,4.45-3.54l1-3.1-1.45-3-3.64-.21a2.29,2.29,0,0,0-2.23,1l-.09,1a7,7,0,0,0,1.36.84,4.06,4.06,0,0,1,.71.29,2.14,2.14,0,0,1,.47.83c0,.11.08.23.13.34.21.48.92.82.91,1.38a.86.86,0,0,1-.37.58,1.84,1.84,0,0,0-.52.48,1.47,1.47,0,0,0,0,1.18,1.57,1.57,0,0,1,.07,1.18C1013.57,532.88,1013.19,533.08,1012.93,533.33Z" transform="translate(-889.55 -476.83)"/>
    </g>
    <path class="cls-10" d="M1010.91,522.78c-.82,1-.11,2.23.7,3a6,6,0,0,0,1.58,1,4.06,4.06,0,0,1,.71.29,2.14,2.14,0,0,1,.47.83c0,.11.08.23.13.34.21.48.92.82.91,1.38a.86.86,0,0,1-.37.58,1.84,1.84,0,0,0-.52.48,1.47,1.47,0,0,0,0,1.18,1.57,1.57,0,0,1,.07,1.18c-.19.33-.64.53-.89.82s-.64.53-.91.87c-.39.5-.47,1.21-.86,1.67a7.93,7.93,0,0,1-1.66,1.12,2.16,2.16,0,0,0-1.09,1.82c1.11-.39,2.5.18,3.45-.52.17-.13.32-.29.48-.42a7.59,7.59,0,0,1,1.4-.69,3.42,3.42,0,0,0,1.18-1,3.18,3.18,0,0,0,1.44.05,4.55,4.55,0,0,0,1.93-.52,4.4,4.4,0,0,0,1.17-1.26l.51-.72.46-.66a6.06,6.06,0,0,0,1-4.17,9.15,9.15,0,0,0-1.65-3.48l-1.69-2.57a3.6,3.6,0,0,0-.72-.88,2.7,2.7,0,0,0-.9-.44,9.87,9.87,0,0,0-3.43-.27A4,4,0,0,0,1010.91,522.78Z" transform="translate(-889.55 -476.83)"/>
    <path class="cls-5" d="M1007,541.13l-5.55-.78a5,5,0,0,1-2.66-1.33l-9.33-8.85-1.1-.71-3.18-1.28-1.74-1.35c-.5-.46-.2-.83.28-.78l1.36,1.12.64.27.37-.21-2.17-2.17c0-.17.36-.43.53-.42l2,1.86.44-.41-2.22-2.42c-.29-.41.48-.55,1.2.11l1.42,2,.42-.16-1.34-2.77c.12-.19.55.15.74.27.74.42,1.82,2.61,1.82,2.61l.74.21.42-.69-.16-.9,1.2,1.22-.15,1.91,8.66,8,7.76,1.8Z" transform="translate(-889.55 -476.83)"/>
    <g class="cls-17">
      <path class="cls-7" d="M1001.88,539.5a5,5,0,0,1-2.66-1.33l-9.33-8.85-1.1-.71-3-1.21,0,0-.64-.27L983.72,526c-.48,0-.78.32-.28.78l1.74,1.35,3.18,1.28,1.1.71,9.33,8.85a5.07,5.07,0,0,0,2.66,1.33l5.55.78.08-.9Z" transform="translate(-889.55 -476.83)"/>
    </g>
    <g class="cls-17">
      <path class="cls-7" d="M1010.75,523.08a3.12,3.12,0,0,1,1.94-1.2,2.94,2.94,0,0,0-1.77.9,1.43,1.43,0,0,0-.29.56A1,1,0,0,1,1010.75,523.08Z" transform="translate(-889.55 -476.83)"/>
      <path class="cls-7" d="M1011.94,537.75a8.32,8.32,0,0,0,1.51-1.32c.33-.5.32-1.21.65-1.76.22-.38.56-.62.79-1s.64-.57.78-.92a1.57,1.57,0,0,0-.21-1.17,1.44,1.44,0,0,1-.16-1.17,2,2,0,0,1,.46-.54.82.82,0,0,0,.3-.62c0-.56-.8-.81-1.07-1.26-.06-.1-.11-.21-.17-.32a2.1,2.1,0,0,0-.57-.77,4.48,4.48,0,0,0-.74-.2,6.46,6.46,0,0,1-1.44-.66,7.15,7.15,0,0,0,1.13.67,4.06,4.06,0,0,1,.71.29,2.14,2.14,0,0,1,.47.83c0,.11.08.23.13.34.21.48.92.82.91,1.38a.86.86,0,0,1-.37.58,1.84,1.84,0,0,0-.52.48,1.47,1.47,0,0,0,0,1.18,1.57,1.57,0,0,1,.07,1.18c-.19.33-.64.53-.89.82s-.64.53-.91.87c-.39.5-.47,1.21-.86,1.67a7.93,7.93,0,0,1-1.66,1.12,2.16,2.16,0,0,0-1.09,1.82,5.89,5.89,0,0,1,1.88-.14A2.55,2.55,0,0,1,1011.94,537.75Z" transform="translate(-889.55 -476.83)"/>
    </g>
    <path class="cls-14" d="M1015.47,558.07l-.13-.15-10.28.31.46,2.65c3.88-1,8.16,4.42,11.19,2.28a12.25,12.25,0,0,0-.18-3A4.43,4.43,0,0,0,1015.47,558.07Z" transform="translate(-889.55 -476.83)"/>
    <path class="cls-18" d="M1016.23,534.81s3.25,1.2,3.41,4.12l-3.9,13.15,1.1,7.5c-3.42,3-8.49-2.06-12.84,1.18l4.19-16.69h0a4.26,4.26,0,0,1-.59-3.68l.12-.41,4.27-3.44Z" transform="translate(-889.55 -476.83)"/>
    <g class="cls-6">
      <path class="cls-7" d="M1008.68,543.46l-.78.14a3.82,3.82,0,0,0,.29.48L1004,560.76a5.45,5.45,0,0,1,1-.59l4-16.09A4.33,4.33,0,0,1,1008.68,543.46Z" transform="translate(-889.55 -476.83)"/>
      <path class="cls-7" d="M1008,559.65c2.24.12,4.48,1.07,6.45.93C1012.4,560.45,1010.16,559.53,1008,559.65Z" transform="translate(-889.55 -476.83)"/>
    </g>
    <path class="cls-19" d="M1015.34,537.43l-4.69.2-2.93,2.36-.12.41a4.33,4.33,0,0,0,.3,3.2l6.46-1.17Z" transform="translate(-889.55 -476.83)"/>
    <polygon class="cls-20" points="125.79 59.75 117.84 60.09 117.45 64.85 126.19 65.49 125.79 59.75"/>
    <path class="cls-10" d="M1022.34,530.84a1.93,1.93,0,0,0-1.07-2.19,4.71,4.71,0,0,0-.63-.33,3.61,3.61,0,0,0-3,.6,6.48,6.48,0,0,0-1.55,1.21,3.59,3.59,0,0,0-.56.78.92.92,0,0,0-.1.86,21.48,21.48,0,0,0,.83,3.05,3,3,0,0,0,2.31,1.93c-.53,1.82.06,3.52.35,5.15a8.52,8.52,0,0,0,.84-1.32c.41-.7.81-1.39,1.2-2.1a14.45,14.45,0,0,0,1.23-2.72C1022.64,534.16,1022.35,532.47,1022.34,530.84Z" transform="translate(-889.55 -476.83)"/>
    <path class="cls-21" d="M1022.34,530.84a5.79,5.79,0,0,0,0-.72,4.4,4.4,0,0,0,0-.73,9.15,9.15,0,0,0-1.65-3.48l-1.69-2.57a3.6,3.6,0,0,0-.72-.88,2.7,2.7,0,0,0-.9-.44,9.87,9.87,0,0,0-3.43-.27,4,4,0,0,0-2.94,1,1.41,1.41,0,0,0-.33.7,4.45,4.45,0,0,1,2.71-.86,9.63,9.63,0,0,1,3.43.23,2.62,2.62,0,0,1,.91.43,3.41,3.41,0,0,1,.73.87l1.72,2.54a9.15,9.15,0,0,1,1.69,3.46,4.49,4.49,0,0,1,.06.73,5.78,5.78,0,0,1,0,.71,16.47,16.47,0,0,1-.11,4.91,7.6,7.6,0,0,1-.38,1,11.49,11.49,0,0,0,.75-1.81C1022.64,534.16,1022.35,532.47,1022.34,530.84Z" transform="translate(-889.55 -476.83)"/>
  </g>
  <g>
    <rect class="cls-9" x="892.75" y="602.8" width="3.46" height="3.31" transform="translate(-989.01 548.99) rotate(-57.02)"/>
    <polygon class="cls-22" points="13.77 94.44 11.66 111.08 2.96 127 6.87 128.38 17.83 115.22 22.31 100.78 13.77 94.44"/>
    <path class="cls-23" d="M901.41,610.25h-4.29l-7.06-2.73-.51-1.07,2.51-3.46.38.33v1.62l3.48,1.18,1.26-1.18,1.13,2.26,1.06.94,3.39.65a2.42,2.42,0,0,1,.6,1.47h-2Z" transform="translate(-889.55 -476.83)"/>
    <path class="cls-9" d="M901.41,610.25h1.94a2.19,2.19,0,0,0-.31-1h-5l-7.27-2.76-.44-1-.74,1,.51,1.07,7.06,2.73Z" transform="translate(-889.55 -476.83)"/>
    <g>
      <polygon class="cls-5" points="8.48 129.83 7.35 129.47 7.26 129.76 8.66 130.19 8.48 129.83"/>
      <polygon class="cls-5" points="9.04 130.63 7.91 130.28 7.82 130.56 9.58 131.1 9.04 130.63"/>
      <polygon class="cls-5" points="8.09 129.05 6.99 128.71 6.74 128.94 8.27 129.42 8.09 129.05"/>
    </g>
    <rect class="cls-5" x="917.93" y="544.81" width="8.33" height="5.9" transform="translate(-1039.97 70.55) rotate(-30.69)"/>
    <rect class="cls-9" x="26.91" y="127" width="3.63" height="3.46"/>
    <path class="cls-24" d="M907.07,582l2.55,2.8,2.23-7.2-8.53-6.34-.44,3.5A19.59,19.59,0,0,0,907.07,582Z" transform="translate(-889.55 -476.83)"/>
    <path class="cls-25" d="M901.89,572h0a19.75,19.75,0,0,0,6.45,8.18L917.6,587,916,604.76h4.79c.25-3.48,2.43-10.28,3.45-14.34a15.15,15.15,0,0,0,.34-3.53,6.22,6.22,0,0,0-.82-3.47l-1.52-2.61-4.08-4.35-3.83-4.29-.07-2.92H901.89V572Z" transform="translate(-889.55 -476.83)"/>
    <path class="cls-24" d="M923.78,583.42l-1.52-2.61-4.08-4.35-3.83-4.29h-1.69l3.83,4.29,4.08,4.35,1.52,2.61a6.2,6.2,0,0,1,.82,3.47,15.15,15.15,0,0,1-.34,3.53c-1,4.06-3.2,10.86-3.45,14.34h1.69c.25-3.48,2.43-10.28,3.45-14.34a15.15,15.15,0,0,0,.34-3.53A6.2,6.2,0,0,0,923.78,583.42Z" transform="translate(-889.55 -476.83)"/>
    <path class="cls-23" d="M921.83,604.56l4.3,3,2.17.66a1.13,1.13,0,0,1,.8,1.08v.67H915.73l-.61-1V605l.61.1,1,1.33h1.84Z" transform="translate(-889.55 -476.83)"/>
    <path class="cls-5" d="M928.94,608.71a1.11,1.11,0,0,1,.17.56v.67H915.74l-.61-1v-1.23l.61,1Z" transform="translate(-889.55 -476.83)"/>
    <g>
      <polygon class="cls-5" points="32.69 129.45 32.69 129.15 34.33 129.15 34.78 129.45 32.69 129.45"/>
      <polygon class="cls-5" points="31.91 128.49 33.39 128.49 33.83 128.8 31.91 128.8 31.91 128.49"/>
      <polygon class="cls-5" points="33.5 130.08 33.5 129.77 35.24 129.77 35.68 130.08 33.5 130.08"/>
    </g>
    <path class="cls-5" d="M932.83,544.41l-1,3.1-.75-.11a2.73,2.73,0,0,1-.22,2.58l-1.21-.43-.76,1.19a1.89,1.89,0,0,1-2.69.51L925,550.4A5,5,0,0,1,923.6,544l2.43-4.39S932.17,540.65,932.83,544.41Z" transform="translate(-889.55 -476.83)"/>
    <g class="cls-17">
      <path class="cls-7" d="M932.68,543.86c0-.1-.07-.2-.12-.3l-.09-.19a5.28,5.28,0,0,0-1.19-1.48l-.15-.13-.23-.18a12.76,12.76,0,0,0-4.55-1.93L924,543.24l-.41.74a9.36,9.36,0,0,0-.45.86c.24-.42,1-.66,1.39-.94a1.73,1.73,0,0,1,1.87-.24,1.59,1.59,0,0,1,.47,1.79,2.45,2.45,0,0,1-.85,1.18,2.52,2.52,0,0,1-1.26.56,4.23,4.23,0,0,1-.5-.05,1.57,1.57,0,0,0-1.14.43,4.93,4.93,0,0,0,1.9,2.82l1.17.85a2.07,2.07,0,0,0,.64.3,1.86,1.86,0,0,0,1.67-.75l.33-.44a.46.46,0,0,0-.27-.07c-.34,0-.49.41-.87.39a.94.94,0,0,1-.37-.11,3.74,3.74,0,0,1-1.1-1.29c-.45-.71.17-1.24.42-1.66a7.6,7.6,0,0,1,.87-1c.15-.19.3-.6.46-.78a.86.86,0,0,1,.58-.23,1.75,1.75,0,0,0,.93-.19A2.57,2.57,0,0,0,930,545a2.2,2.2,0,0,1,.5-.51.49.49,0,0,1,.28-.09c.22,0,.25.32.37.46a2,2,0,0,0,.61.48,4.35,4.35,0,0,0,.59.25l.09,0,.39-1.22A1.5,1.5,0,0,0,932.68,543.86Z" transform="translate(-889.55 -476.83)"/>
    </g>
    <path class="cls-26" d="M926.88,544.52a1.6,1.6,0,0,0-.59-1.75,1.7,1.7,0,0,0-1.85.37,3.67,3.67,0,0,0-1,1.16,1.62,1.62,0,0,1-.33.55c-.13.11-.28,0-.45.06a1.1,1.1,0,0,1-1-.31.52.52,0,0,1-.1-.18c-.08-.26.1-.45.27-.6a1.3,1.3,0,0,0,.45-.77,7,7,0,0,0,.06-1.12,1.67,1.67,0,0,1,.34-1c.17-.19.42-.28.56-.48a2.47,2.47,0,0,0,.29-.67,2.48,2.48,0,0,1,.62-1.24,2,2,0,0,1,.77-.37c.24-.08.47,0,.72-.11a2.75,2.75,0,0,0,.76-.35,2.21,2.21,0,0,1,.89-.35c.31,0,.47.14.73.22a6.42,6.42,0,0,0,.88,0,5.31,5.31,0,0,1,1,.25,2.14,2.14,0,0,1,.73.35,3.31,3.31,0,0,1,.47.58c.32.41.68.4,1,.82s.54.86.84,1.26a7.46,7.46,0,0,1,.8,1c.21.43.21,1,.55,1.32a1.43,1.43,0,0,1,.32.33.49.49,0,0,1-.07.49c-.48.7-1.59.5-2.27.31a4.35,4.35,0,0,1-.61-.2,2.2,2.2,0,0,1-.65-.44c-.14-.14-.18-.44-.4-.44a.49.49,0,0,0-.28.11,2.36,2.36,0,0,0-.46.54,2.51,2.51,0,0,1-.44.42,1.72,1.72,0,0,1-.91.26.83.83,0,0,0-.56.27c-.15.19-.27.61-.41.81a9,9,0,0,0-.8,1.07c-.21.44-.8,1-.3,1.69a3.72,3.72,0,0,0,1.19,1.21.84.84,0,0,0,.38.08c.38,0,.5-.39.84-.45s.5.17.67.32a2.13,2.13,0,0,1,.45.45.83.83,0,0,1,.06.21c0,.43-.33.82-.58,1.13a2.14,2.14,0,0,1-.53.51,2.54,2.54,0,0,1-.68.29l-.77.23a2.48,2.48,0,0,1-1.21,0,1.54,1.54,0,0,1-.49-.26,9.86,9.86,0,0,1-2.16-1.68,3.67,3.67,0,0,1-.82-2.68,1.63,1.63,0,0,1,1.55-1.39c.17,0,.33,0,.5,0a2.55,2.55,0,0,0,1.22-.65A2.34,2.34,0,0,0,926.88,544.52Z" transform="translate(-889.55 -476.83)"/>
    <g class="cls-6">
      <path class="cls-7" d="M929,551.45l-.77.23a2.48,2.48,0,0,1-1.21.05,1.54,1.54,0,0,1-.49-.26,9.86,9.86,0,0,1-2.16-1.68,3.67,3.67,0,0,1-.82-2.68,1.57,1.57,0,0,1,.16-.52,1.62,1.62,0,0,0-.84,1.19,3.7,3.7,0,0,0,.82,2.68,9.63,9.63,0,0,0,2.16,1.68,1.54,1.54,0,0,0,.49.26,2.48,2.48,0,0,0,1.21,0l.77-.23a2.29,2.29,0,0,0,.68-.29,2.56,2.56,0,0,0,.53-.51l.12-.15A2.71,2.71,0,0,1,929,551.45Z" transform="translate(-889.55 -476.83)"/>
    </g>
    <path class="cls-27" d="M922.71,544.39a7,7,0,0,0,.06-1.12,1.67,1.67,0,0,1,.34-1c.17-.19.42-.28.56-.48a2.47,2.47,0,0,0,.29-.67,2.48,2.48,0,0,1,.62-1.24,2,2,0,0,1,.77-.37c.24-.08.47-.05.72-.11a2.75,2.75,0,0,0,.76-.35,2.21,2.21,0,0,1,.89-.35c.31,0,.47.14.73.22a6.42,6.42,0,0,0,.88,0,5.31,5.31,0,0,1,1,.25,2.14,2.14,0,0,1,.73.35,3.31,3.31,0,0,1,.47.58c.32.41.68.4,1,.82s.54.86.84,1.26a7.46,7.46,0,0,1,.8,1c.15.3.19.65.32,1a1.17,1.17,0,0,0,.15-.16.49.49,0,0,0,.07-.49,1.43,1.43,0,0,0-.32-.33c-.35-.34-.34-.89-.55-1.32a7,7,0,0,0-.8-1c-.29-.4-.55-.86-.84-1.26s-.67-.41-1-.82a3.31,3.31,0,0,0-.47-.58,2,2,0,0,0-.73-.35,6.58,6.58,0,0,0-1-.25,8.43,8.43,0,0,1-.88,0c-.27-.08-.43-.25-.73-.22a2.27,2.27,0,0,0-.89.35,2.75,2.75,0,0,1-.76.35,6,6,0,0,0-.72.11,2.39,2.39,0,0,0-.77.37,2.7,2.7,0,0,0-.62,1.24,2.23,2.23,0,0,1-.29.67c-.14.2-.39.29-.56.48a1.69,1.69,0,0,0-.34,1,6.89,6.89,0,0,1-.06,1.12,1.35,1.35,0,0,1-.45.77c-.17.15-.36.34-.27.6a.64.64,0,0,0,.1.18,1,1,0,0,0,.73.31A1.39,1.39,0,0,0,922.71,544.39Z" transform="translate(-889.55 -476.83)"/>
    <path class="cls-24" d="M914.35,572.16l-.07-2.91H901.89V572a19.42,19.42,0,0,0,1,1.94C906.18,574.38,910.73,572.06,914.35,572.16Z" transform="translate(-889.55 -476.83)"/>
    <path class="cls-10" d="M920.31,545.45l-5.41.7a7.39,7.39,0,0,0-2.74.91h0a7.64,7.64,0,0,0-3.2,3.43l-9.25,19.64c3.26,5.34,11.55-1.17,16.56.69l5.06-12.35a20.2,20.2,0,0,0,1.5-7.64h0Z" transform="translate(-889.55 -476.83)"/>
    <g class="cls-6">
      <path class="cls-7" d="M903.21,572.24c3,.26,6.91-1.52,10.22-1.75C910.32,570.22,906.43,572,903.21,572.24Z" transform="translate(-889.55 -476.83)"/>
      <path class="cls-7" d="M920.31,545.45l1.15,5.38a20.23,20.23,0,0,1-1.5,7.64L915,570.53a5,5,0,0,1,1.23.29l5.06-12.35a20.2,20.2,0,0,0,1.5-7.64Z" transform="translate(-889.55 -476.83)"/>
    </g>
    <path class="cls-23" d="M901,570.12l9.25-19.64a7.64,7.64,0,0,1,3.2-3.43,7.84,7.84,0,0,1,2.74-.91l4.14-.54-.08-.17-5.41.7a7.68,7.68,0,0,0-5.94,4.34l-9.25,19.64c1.13,1.86,2.87,2.28,4.87,2.12A4.25,4.25,0,0,1,901,570.12Z" transform="translate(-889.55 -476.83)"/>
    <polygon class="cls-10" points="29.21 74.98 30.76 83.59 24.45 83.59 20.45 75.21 29.21 74.98"/>
    <path class="cls-14" d="M911,554l3,6.42h2l-1.54-3.23A6.4,6.4,0,0,0,911,554Z" transform="translate(-889.55 -476.83)"/>
    <path class="cls-5" d="M914.56,560.42l1,4.75,1.48,1.8a3.86,3.86,0,0,0,.49.5l3.2,2.58,6,5.41,1.74,3.15.52,4.28a.74.74,0,0,0,.68,0l.23-2.87h.62l1.41,3.89c.13.09.52.12.62,0l-.9-4.34,2,4.34c.15.09.59.14.69,0l-1.46-4.84.17-.39,2.64,3.21c.2,0,.55-.36.57-.56L933,575.92l.11-.85,1.41-.16a1.26,1.26,0,0,0,1.12-1.25h0l-2.92-.17-2.87-.28-9.52-10.37-.45-2.42Z" transform="translate(-889.55 -476.83)"/>
    <g class="cls-17">
      <path class="cls-7" d="M929.48,577.94l-1.74-3.15-6-5.41-3.2-2.58a3.86,3.86,0,0,1-.49-.5l-1.48-1.8-.89-4.07h-1.16l1,4.75,1.48,1.8a3.86,3.86,0,0,0,.49.5l3.2,2.58,6,5.41,1.74,3.15.52,4.28a.74.74,0,0,0,.68,0l.17-2.11Z" transform="translate(-889.55 -476.83)"/>
    </g>
  </g>
</svg>
