<svg id="图层_1" data-name="图层 1" xmlns="http://www.w3.org/2000/svg" xmlns:xlink="http://www.w3.org/1999/xlink" viewBox="0 0 148.8 123.85">
  <defs>
    <style>
      .cls-1 {
        fill: url(#未命名的渐变);
      }

      .cls-2 {
        fill: url(#未命名的渐变_2);
      }

      .cls-3 {
        fill: url(#未命名的渐变_3);
      }

      .cls-12, .cls-4 {
        fill: #fff;
      }

      .cls-10, .cls-13, .cls-4, .cls-5 {
        opacity: 0.3;
      }

      .cls-10, .cls-13, .cls-18, .cls-4, .cls-5 {
        isolation: isolate;
      }

      .cls-5 {
        fill: #231f20;
      }

      .cls-6 {
        fill: url(#未命名的渐变_4);
      }

      .cls-7 {
        fill: url(#未命名的渐变_5);
      }

      .cls-8 {
        fill: #f1f2f2;
      }

      .cls-9 {
        fill: #56408b;
      }

      .cls-10, .cls-18 {
        fill: #30334f;
      }

      .cls-11 {
        fill: #e6e7e8;
      }

      .cls-13 {
        fill: #191c3c;
      }

      .cls-14 {
        fill: url(#未命名的渐变_6);
      }

      .cls-15 {
        fill: url(#未命名的渐变_7);
      }

      .cls-16 {
        fill: url(#未命名的渐变_8);
      }

      .cls-17 {
        fill: #413068;
      }

      .cls-18 {
        opacity: 0.1;
      }

      .cls-19 {
        fill: url(#未命名的渐变_9);
      }

      .cls-20 {
        fill: url(#未命名的渐变_10);
      }
    </style>
    <linearGradient id="未命名的渐变" x1="979.43" y1="477.32" x2="979.43" y2="599.03" gradientTransform="matrix(1, 0, 0, -1, 0, 1080)" gradientUnits="userSpaceOnUse">
      <stop offset="0" stop-color="#ad8fcf"/>
      <stop offset="0.03" stop-color="#af90cd"/>
      <stop offset="0.42" stop-color="#cd99b8"/>
      <stop offset="0.76" stop-color="#df9eab"/>
      <stop offset="1" stop-color="#e5a0a6"/>
    </linearGradient>
    <linearGradient id="未命名的渐变_2" data-name="未命名的渐变 2" x1="961.75" y1="482.74" x2="1007.92" y2="482.74" gradientTransform="matrix(1, 0, 0, -1, -904.82, 599.03)" gradientUnits="userSpaceOnUse">
      <stop offset="0" stop-color="#56408b"/>
      <stop offset="0.14" stop-color="#5c438f"/>
      <stop offset="0.34" stop-color="#6d4b99"/>
      <stop offset="0.55" stop-color="#8858aa"/>
      <stop offset="0.79" stop-color="#af6bc2"/>
      <stop offset="1" stop-color="#d77edb"/>
    </linearGradient>
    <linearGradient id="未命名的渐变_3" data-name="未命名的渐变 3" x1="961.76" y1="512.42" x2="1007.93" y2="512.42" gradientTransform="matrix(1, 0, 0, -1, 0, 1080)" xlink:href="#未命名的渐变_2"/>
    <linearGradient id="未命名的渐变_4" data-name="未命名的渐变 4" x1="964.73" y1="547.04" x2="1004.05" y2="547.04" gradientTransform="matrix(1, 0, 0, -1, 0, 1080)" xlink:href="#未命名的渐变_2"/>
    <linearGradient id="未命名的渐变_5" data-name="未命名的渐变 5" x1="955.92" y1="477.7" x2="1013.76" y2="477.7" gradientTransform="matrix(1, 0, 0, -1, 0, 1080)" xlink:href="#未命名的渐变_2"/>
    <linearGradient id="未命名的渐变_6" data-name="未命名的渐变 6" x1="912.14" y1="516.21" x2="927.87" y2="516.21" gradientTransform="matrix(1, 0, 0, -1, 0, 1080)" gradientUnits="userSpaceOnUse">
      <stop offset="0" stop-color="#e5a0a6"/>
      <stop offset="0.4" stop-color="#ecadaa"/>
      <stop offset="1" stop-color="#fcc8b2"/>
    </linearGradient>
    <linearGradient id="未命名的渐变_7" data-name="未命名的渐变 7" x1="923.24" y1="477.69" x2="932.48" y2="477.69" xlink:href="#未命名的渐变_6"/>
    <linearGradient id="未命名的渐变_8" data-name="未命名的渐变 8" x1="905.38" y1="477.77" x2="913.53" y2="477.77" xlink:href="#未命名的渐变_6"/>
    <linearGradient id="未命名的渐变_9" data-name="未命名的渐变 9" x1="1017.75" y1="490.52" x2="1032.22" y2="490.52" xlink:href="#未命名的渐变_6"/>
    <linearGradient id="未命名的渐变_10" data-name="未命名的渐变 10" x1="1025.99" y1="492.76" x2="1051.08" y2="492.76" xlink:href="#未命名的渐变_6"/>
  </defs>
  <path class="cls-1" d="M1033,509.11a20.14,20.14,0,0,1-5,13.32,56.89,56.89,0,1,1-28.54-28.54A20.23,20.23,0,0,1,1033,509.11Zm1.29-28.14a5.37,5.37,0,1,0,5.37,5.37A5.37,5.37,0,0,0,1034.29,481Zm-34.21,8.61a2.27,2.27,0,1,0-2.27-2.27A2.27,2.27,0,0,0,1000.08,489.58Z" transform="translate(-904.82 -480.97)"/>
  <g>
    <rect class="cls-2" x="56.93" y="110.45" width="46.17" height="11.68"/>
    <path class="cls-3" d="M1007.93,591.42H961.76a49.21,49.21,0,0,0,9.92-29.63v-18H998v18a49.22,49.22,0,0,0,9.93,29.63Z" transform="translate(-904.82 -480.97)"/>
    <rect class="cls-4" x="61.91" y="110.45" width="6.63" height="11.68"/>
    <path class="cls-4" d="M980,543.73h-3.32v18a49.19,49.19,0,0,1-9.92,29.63h6.63c6.44-8.54,6.61-18.94,6.61-29.63Z" transform="translate(-904.82 -480.97)"/>
    <rect class="cls-5" x="66.86" y="62.76" width="26.32" height="4.93"/>
    <path class="cls-6" d="M996.37,520.73v6.08h-7.56v-6.08a1,1,0,0,0-1-1.05H981a1,1,0,0,0-1,1.05v6.08h-7.55v-6.08a1,1,0,0,0-1-1.05h-5.58a1,1,0,0,0-1,1.05v22.92a2.59,2.59,0,0,0,2.6,2.6h34.12a2.59,2.59,0,0,0,2.6-2.6V520.73a1,1,0,0,0-1-1.05h-5.58A1,1,0,0,0,996.37,520.73Z" transform="translate(-904.82 -480.97)"/>
    <path class="cls-7" d="M1011.57,604.81H958.11a2.19,2.19,0,0,1-2.19-2.19V602a2.19,2.19,0,0,1,2.19-2.19h53.46a2.19,2.19,0,0,1,2.19,2.19v.63A2.19,2.19,0,0,1,1011.57,604.81Z" transform="translate(-904.82 -480.97)"/>
    <path class="cls-4" d="M1012.55,599.8H957.14a1.22,1.22,0,0,0-1.22,1.22v1.38h57.85V601A1.22,1.22,0,0,0,1012.55,599.8Z" transform="translate(-904.82 -480.97)"/>
  </g>
  <g>
    <rect class="cls-8" x="18.53" y="117.91" width="3.11" height="3.35"/>
    <rect class="cls-8" x="906.22" y="598.27" width="3.35" height="3.11" transform="translate(-821.82 828.5) rotate(-74.16)"/>
    <polygon class="cls-9" points="16.11 91.57 21.8 102.86 22.02 119.47 18.2 119.47 17.84 105.52 12.01 97.19 16.11 91.57"/>
    <polygon class="cls-10" points="16.56 92.47 15.13 95.16 14.85 101.25 12.01 97.19 16.11 91.57 16.56 92.47"/>
    <path class="cls-9" d="M920.93,572.54l.15.3-1.75,3.3-4.4,10.41a6.22,6.22,0,0,1-1.21,1.86h0l-4.24,11.79-3.37-.36,2.15-9.16a15.11,15.11,0,0,1,1.91-4.77,2.15,2.15,0,0,0,.4-1.07l1.56-9.65-.26-1.05a4.42,4.42,0,0,1,.21-2.78l.41-1Z" transform="translate(-904.82 -480.97)"/>
    <path class="cls-11" d="M927.19,557.37,931,563a.77.77,0,0,0,.54.33l6.69.89a.73.73,0,0,0,.77-.41l1.17-2.43v-1.59A.83.83,0,0,1,941,559h0v4.71l-1.11,1.63a.72.72,0,0,1-.52.3l-8.23.65a1.25,1.25,0,0,1-1-.42l-7.05-8Z" transform="translate(-904.82 -480.97)"/>
    <rect class="cls-12" x="925.25" y="552.83" width="3.15" height="3.04" transform="translate(-939.34 565.44) rotate(-57.99)"/>
    <polygon class="cls-13" points="20.85 71.92 23.2 74.42 24.14 72.91 21.56 71.3 20.85 71.92"/>
    <path class="cls-12" d="M930.39,548.07v1.2l-.18.31a1.79,1.79,0,0,0,1,1.2s.16.68-.65.62l0,1.55a1,1,0,0,1-1,1h-2.45a1.54,1.54,0,0,1-1.47-1.05l-1.13-3.32.45-1.93S928.87,546.32,930.39,548.07Z" transform="translate(-904.82 -480.97)"/>
    <path class="cls-14" d="M927.87,559.29l-.92-2.24.34-.5-3.23-2.14-2.64,1a1.82,1.82,0,0,0-1,.84l-3.63,7.24a1.74,1.74,0,0,1-.11.18l-4.57,6.63,9.69,2.91.72-5a1.63,1.63,0,0,1,.32-.66l4.57-5.46Z" transform="translate(-904.82 -480.97)"/>
    <path class="cls-15" d="M932.48,604.26l-.14-.35a3,3,0,0,0-1.38-1.5l-2.58-.95-1.75-1.1v.93l-2,0-.82-.46h-.57v3.44h9.24Z" transform="translate(-904.82 -480.97)"/>
    <rect class="cls-9" x="17.93" y="123.3" width="9.97" height="0.55"/>
    <path class="cls-16" d="M913.53,604.44l-.12-.49a2.09,2.09,0,0,0-.77-1.05l-2.1-1.39-1.32-1.35-.2.83-1.77-.46-.63-.58-.51-.12-.73,3.06,7.22,1.73Z" transform="translate(-904.82 -480.97)"/>
    <polygon class="cls-9" points="0 122.31 6.14 123.78 6.91 123.45 0.11 121.82 0 122.31"/>
    <polygon class="cls-9" points="8.9 123.8 6.14 123.84 6.14 123.3 8.9 123.3 8.9 123.8"/>
    <path class="cls-17" d="M926.16,545.48a2.68,2.68,0,0,1,1.43.1c.28.1.51.3.79.37a5.36,5.36,0,0,0,1.06,0,2.57,2.57,0,0,1,.68.06.77.77,0,0,1,.52.41,1.18,1.18,0,0,1,.05.62,2.3,2.3,0,0,1-.2,1.07c-.19.28-.45.32-.76.42a1.3,1.3,0,0,0-.38.17c-.39.28-.38.91-.78,1.18s-.67.17-.87.43a1.6,1.6,0,0,0-.16.76,1.06,1.06,0,0,1-.62.77.72.72,0,0,0-.25.12.39.39,0,0,0-.11.21c-.11.44.08,1-.21,1.32s-.51.26-.76.43-.24.41-.25.79a2.13,2.13,0,0,0,.09.84,1.92,1.92,0,0,0,.7.77c-.26-.11-.53-.21-.8-.3a13.62,13.62,0,0,0,.22,1.91,2.29,2.29,0,0,1-.8-.94c-.14-.24-.35-.52-.63-.48a2.12,2.12,0,0,1-.36.57,2.56,2.56,0,0,0-.62-1.07c-.17.25-.35.49-.55.73a1.06,1.06,0,0,0-.31.84,2.52,2.52,0,0,0-.32-.88,5.41,5.41,0,0,1-2.38,1.56,3.23,3.23,0,0,1,.6-1.73,2.79,2.79,0,0,0,.4-1c0-.3-.18-.55-.1-.87.15-.59.93-.85,1-1.44a7.13,7.13,0,0,1,0-.8,2.31,2.31,0,0,1,.49-.68,2.29,2.29,0,0,0,.34-1.08,3.63,3.63,0,0,1,.33-.75c.25-.6-.48-1.29.28-1.76a2.53,2.53,0,0,0,.36-.2,1.16,1.16,0,0,0,.27-.44,6,6,0,0,1,.62-1.11,1.05,1.05,0,0,1,.31-.32A1.77,1.77,0,0,1,925,546a3.69,3.69,0,0,0,.64-.29A2.72,2.72,0,0,1,926.16,545.48Z" transform="translate(-904.82 -480.97)"/>
    <path class="cls-18" d="M923.09,559c.55.26,1.12.72,1,1.31.67.18.8.83,1.49,1.22a.27.27,0,0,1,.09.35l.41.18a.24.24,0,0,1,.11.27,2.67,2.67,0,0,1,.63.58l-.34.41c-.22-.31-.43-.77-.79-1a1.62,1.62,0,0,1-.42-.49c-.25-.09-.28.32-.31.08a.36.36,0,0,1,0-.21c-.41-.38-.62-.73-1.07-.73-.18,0-.19-.15-.08-.31.37-.53-.52-1.45-.81-1.59S922.79,558.81,923.09,559Z" transform="translate(-904.82 -480.97)"/>
    <path class="cls-12" d="M927.87,559.29l3.14,4.56a.77.77,0,0,0,.54.33l6.69.89a.73.73,0,0,0,.77-.41l1.17-2.43v-1.59a.83.83,0,0,1,.81-.83h0v4.71l-1.11,1.63a.72.72,0,0,1-.52.3l-8.23.65a1.25,1.25,0,0,1-1-.42l-5.36-5.77Z" transform="translate(-904.82 -480.97)"/>
    <path class="cls-18" d="M924.42,565.69l-.12-.43a.26.26,0,0,1,.13-.36c0-.25.4-.11.37-.36s-.37-.66-.25-.71c-.09-.23.14-.32.05-.56a4.8,4.8,0,0,1-.2-.79c0-.32.16-.37.22,0a3,3,0,0,0,.07.32l0,.1a2.77,2.77,0,0,0,1,1.27l-.33.39-.11-.09c0,.06,0,.12,0,.18Z" transform="translate(-904.82 -480.97)"/>
    <path class="cls-18" d="M921.05,567.42c-.11-.19.07,0,.28,0l.48.1a.71.71,0,0,0,.75-.35h0c-.16-.06-.74-.49-.91-.53s-.32-.16,0-.1c.57.11,1.13.25,1.69.4l-.48.57a1.59,1.59,0,0,0-.28.53l-.06,0a.25.25,0,0,1,0,.07l0,.08-.21,1.49a.26.26,0,0,1-.12-.15l-.24-.79a.23.23,0,0,1,.18-.3C921.88,568,921.34,567.89,921.05,567.42Z" transform="translate(-904.82 -480.97)"/>
    <path class="cls-10" d="M912.76,576.4c-.58.14-.85.66-1,1.25l.32-2h.06s0-.21,0-.33h0l0-.13-.16-.65a9.62,9.62,0,0,0,1.35.8.24.24,0,0,1,.12.21l.6.22c.26.09-.34.27-.65.25s-.12.21-.47.2A.21.21,0,0,1,912.76,576.4Z" transform="translate(-904.82 -480.97)"/>
    <path class="cls-10" d="M909.84,586.47c.06,0,.1-.08.07-.12l.27-.45v0c.11,0,.21-.22.15-.26a2.27,2.27,0,0,0,.2-.5h.1l0,0,0,0a1,1,0,0,0,0-.24l.12-.75a2.09,2.09,0,0,0,.48.67.23.23,0,0,1,.12.16l1,.57c.29.17-.32.18-.62,0s0,.26-.2.21a.3.3,0,0,1-.18.23l-.53.22c.18.08.14.42.32.52s.36.25.1.24a3.72,3.72,0,0,0-1.33.07l-.36.14C909.59,586.92,909.71,586.69,909.84,586.47Z" transform="translate(-904.82 -480.97)"/>
    <path class="cls-10" d="M923.37,585.69a.26.26,0,0,1-.06.51c.44.21.88.42,1.31.65.26.14-.29.1-.57,0s-.65,0-1,.3l.53,0a.26.26,0,0,1,0,.52,3.43,3.43,0,0,0-.56.06c-.41.11-.09,0-.27.17h0l0-1.22a.48.48,0,0,1,.2-.17l-.24-.11-1-1.39a.27.27,0,0,1,.14.07C922.19,585.55,922.85,585.5,923.37,585.69Z" transform="translate(-904.82 -480.97)"/>
    <path class="cls-18" d="M918.15,564c-.76-.57-.48,0-.76-.11,0,.07.43.49.47.56s-.42.1-.64,0h-.06s0,.23,0,.26c.22.18,0,.28-.19.25a2,2,0,0,0-1.34.17l.89-1.29c.08,0,.17-.12.13-.19l0-.06a1.74,1.74,0,0,0,.11-.18l.16-.31c.09,0,.14-.09.1-.2l.77-1.53a.24.24,0,0,1,0,.28,1.2,1.2,0,0,0-.16,1.29,5.38,5.38,0,0,0,.82,1C918.71,564.23,918.4,564.22,918.15,564Z" transform="translate(-904.82 -480.97)"/>
    <path class="cls-9" d="M924.6,602.79a.67.67,0,1,0,.67-.67A.67.67,0,0,0,924.6,602.79Z" transform="translate(-904.82 -480.97)"/>
    <circle class="cls-9" cx="2.22" cy="121.16" r="0.67"/>
  </g>
  <g>
    <path class="cls-5" d="M985.6,551.1a.05.05,0,0,0,.08,0l5.79-5.11v-4.72l-11.76-14.46H972.4v-6h-4.06l.28-1.13h-2.85a1,1,0,0,0-1,1v22.92a2.59,2.59,0,0,0,2.6,2.6h2.8v0C981.21,544.09,985.22,550.44,985.6,551.1Z" transform="translate(-904.82 -480.97)"/>
    <path class="cls-5" d="M993.79,603.73v-2.85a1.23,1.23,0,0,0-1.33-1.08h-4.6l-4.63-11.25h4.27a1,1,0,0,0,.42-.09,1.08,1.08,0,0,0,.66-1v-2.85a1.08,1.08,0,0,0-1.08-1.08H984l4.1-4.71L971.69,549v12.74a49.19,49.19,0,0,1-9.92,29.63v8.38h-4.63a1.22,1.22,0,0,0-1.22,1.22v1.61a2.19,2.19,0,0,0,2.19,2.19h34.35A1.23,1.23,0,0,0,993.79,603.73Z" transform="translate(-904.82 -480.97)"/>
  </g>
  <g>
    <path class="cls-12" d="M980.61,584l4.5-5.17-18-32.6c11.09-2.13,15.1,4.22,15.48,4.88a.05.05,0,0,0,.08,0l5.79-5.11v-4.72l-16.64-20.46h-6.49l2-8-.09-.06-14.52,9.39h0a63.43,63.43,0,0,0-12.15,37.34v18.86l5.85,7H979.3Z" transform="translate(-904.82 -480.97)"/>
    <polygon class="cls-12" points="81.36 122.03 34.63 122.03 41.62 105.07 74.37 105.07 81.36 122.03"/>
    <g>
      <path class="cls-11" d="M953.7,529.81l-4.52-2.1c-.61,1-1.21,2.1-1.76,3.17l4.76,2.21Z" transform="translate(-904.82 -480.97)"/>
      <path class="cls-11" d="M948.83,543.08l.79-3.53-5.35-1.19c-.4,1.14-.77,2.3-1.11,3.46Z" transform="translate(-904.82 -480.97)"/>
      <path class="cls-11" d="M948.35,548.14l.29-3.61-6.11-.49c-.3,1.18-.54,2.37-.76,3.57Z" transform="translate(-904.82 -480.97)"/>
      <path class="cls-11" d="M950.18,538.49l1.06-3.46-5-1.54c-.5,1.11-1,2.23-1.4,3.36Z" transform="translate(-904.82 -480.97)"/>
      <rect class="cls-11" x="35.77" y="87.42" width="7.3" height="3.62"/>
      <rect class="cls-11" x="35.77" y="81.21" width="7.3" height="3.62"/>
      <path class="cls-11" d="M947.89,553.39v-3.62h-6.54c-.19,1.2-.31,2.41-.43,3.62Z" transform="translate(-904.82 -480.97)"/>
      <path class="cls-11" d="M947.89,556h-7.16c-.07,1.17-.14,2.35-.14,3.53v.09h7.3Z" transform="translate(-904.82 -480.97)"/>
    </g>
    <polygon class="cls-5" points="39.09 101.36 41.62 104.37 74.5 104.37 75.79 103.02 77.24 101.36 39.09 101.36"/>
    <path class="cls-11" d="M984.49,588.55h-43a1.08,1.08,0,0,1-1.08-1.08v-2.85a1.08,1.08,0,0,1,1.08-1.08h43a1.08,1.08,0,0,1,1.08,1.08v2.85A1.08,1.08,0,0,1,984.49,588.55Z" transform="translate(-904.82 -480.97)"/>
    <path class="cls-12" d="M940.44,586v1.52a1.08,1.08,0,0,0,1.08,1.08h43a1.08,1.08,0,0,0,1.08-1.08V586Z" transform="translate(-904.82 -480.97)"/>
    <polygon class="cls-5" points="34.63 122.03 81.36 122.03 79.54 117.62 36.45 117.62 34.63 122.03"/>
    <path class="cls-11" d="M989.45,604.81H936.56a1.23,1.23,0,0,1-1.33-1.08v-2.85a1.23,1.23,0,0,1,1.33-1.08h52.89a1.23,1.23,0,0,1,1.33,1.08v2.85A1.21,1.21,0,0,1,989.45,604.81Z" transform="translate(-904.82 -480.97)"/>
    <path class="cls-8" d="M935.23,602.21v1.52a1.23,1.23,0,0,0,1.33,1.08h52.89a1.23,1.23,0,0,0,1.33-1.08v-1.52Z" transform="translate(-904.82 -480.97)"/>
  </g>
  <g>
    <rect class="cls-12" x="1012.97" y="563.17" width="2.94" height="4.84" transform="translate(-1025.75 329.38) rotate(-41.31)"/>
    <polygon class="cls-13" points="110.69 83.63 109.24 86.39 106.9 83.77 109.11 81.83 110.69 83.63"/>
    <path class="cls-12" d="M1015.32,564.36l-2.82,2.48a2.09,2.09,0,0,1-3-.19h0l-1-1.09-.69.33-.21-2.16h0a2,2,0,0,1-1.67-1.06l.5-.58,2.29-2a2.06,2.06,0,0,1,2.91.19Z" transform="translate(-904.82 -480.97)"/>
    <polygon class="cls-12" points="119.48 117.93 120.16 119.62 118.96 121.56 123.16 121.56 123.16 120.05 121.91 117.66 119.48 117.93"/>
    <polygon class="cls-12" points="143.22 117.82 144.47 118.93 144.27 121.02 147.73 119.31 147.11 118.06 145.11 116.6 143.22 117.82"/>
    <path class="cls-19" d="M1025.67,578.85l-7.6,7.6a1.11,1.11,0,0,0-.2,1.29l6.34,12.38,3-.74s-2.81-9.22-4.35-11.51l9.32-6Z" transform="translate(-904.82 -480.97)"/>
    <polygon class="cls-13" points="120.85 97.88 119.62 99.11 118.83 106.42 127.39 100.89 120.85 97.88"/>
    <path class="cls-20" d="M1031.62,574.59s2.81.79,4,2.69l1.57,3.73,6.08,7.51s3.77,1.89,7.82,9.15l-2.5,2.22-8-8L1030.18,583l-4.19-2.42Z" transform="translate(-904.82 -480.97)"/>
    <path class="cls-12" d="M1014.83,567l-5.49,2.75-10.09.39-1.5-2-1.18-4h0a2,2,0,0,0-.33,1.29l.26,2.17.38,2.49,1,1.6,12,.8,5.32-2Z" transform="translate(-904.82 -480.97)"/>
    <path class="cls-13" d="M1026.13,580.42c.4.34.61.55.65.58h0c4-.35,5.61-4.09,6.16-5.9a8.57,8.57,0,0,0-1.32-.52Z" transform="translate(-904.82 -480.97)"/>
    <path class="cls-9" d="M1015.86,564.92a5.49,5.49,0,0,1,4.84.52s8.57,8,11.51,8.7c0,0-1.11,6.41-6.41,6.87a28.33,28.33,0,0,0-5.69-4.06,13.46,13.46,0,0,1-6.54-8.76Z" transform="translate(-904.82 -480.97)"/>
    <polygon class="cls-9" points="122.85 120.51 122.22 121.19 120.36 121.23 119.38 120.05 117.65 121.85 113.85 122.11 113.85 123.06 114.57 123.65 123.53 123.65 123.53 120.47 122.85 120.51"/>
    <polygon class="cls-9" points="144.36 119.38 143.69 121.12 142.86 122.08 141.16 122.7 141.16 123.53 142.12 123.84 145.66 123.84 148.8 120.38 147.22 117.93 146.72 118.3 146.72 119.01 145.66 119.92 144.36 119.38"/>
    <polygon class="cls-13" points="105.01 91.59 109.03 90.1 108.09 87.7 105.07 88.51 104.51 88.79 94.43 89.18 94.12 88.79 93.25 88.79 91.74 86.83 91.66 86.5 91.68 86.7 92.06 89.18 92.88 90.51 97.97 91.11 105.01 91.59"/>
    <path class="cls-13" d="M1017.26,567.24l-3.57,1.4a13.86,13.86,0,0,0,2.2,4.58l2.73-3.12c1-.37,1-.86.66-1.82h.39A1.87,1.87,0,0,0,1017.26,567.24Z" transform="translate(-904.82 -480.97)"/>
    <path class="cls-9" d="M1018.62,570.3l-4.52,1.78-1.36-3.45,4.52-1.78a1.85,1.85,0,0,1,2.4,1h0A1.84,1.84,0,0,1,1018.62,570.3Z" transform="translate(-904.82 -480.97)"/>
    <path class="cls-12" d="M1012.91,569.06l-4,1.09H998.07l-1.5-2-1.18-4h0a2,2,0,0,0-.33,1.29l.26,2.17.35,2.3a.93.93,0,0,0,.13.35l.9,1.44,12.43,1.47,4.85-1.47Z" transform="translate(-904.82 -480.97)"/>
    <polygon class="cls-12" points="123.51 123.13 119.25 121.56 119.25 121.56 123.51 121.56 123.51 123.13"/>
    <polygon class="cls-12" points="148.6 120.08 147.49 121.25 144.25 121.17 144.25 121.17 146.71 120.09 147.85 118.89 148.6 120.08"/>
    <path class="cls-9" d="M1015.75,562.83a.45.45,0,0,1,.25-.33c-.16-.11-.47-.17-.59-.33s0-.71.12-.64l-.27-.16-.14-.14c-.08-.09-.14-.18-.21-.27a3.93,3.93,0,0,1-.61-1.14,1.53,1.53,0,0,0-.31-.64,4.39,4.39,0,0,0-2.24-.93c-.94-.18-1.88-.73-2.79-.42a3.3,3.3,0,0,0-.77.45,5.35,5.35,0,0,0-1.51,1.32,2.67,2.67,0,0,1-.42.65c-.19.17-.46.24-.61.45a1.79,1.79,0,0,0,.05,1.59l.52,1.47c.34-.18.46-.6.68-.91.32-.47,1.45-1.29,2.06-1.06.38.14.5.61.78.91s.82.44,1,.83.2.63.49.69c-.12,0-.16-.82-.16-.93,0-.3-.1-.56-.13-.86a.56.56,0,0,1,.14-.52c.08-.06.18-.08.26-.14a.54.54,0,0,1,.12-.09.32.32,0,0,1,.27,0c.51.22.5.66.56,1.17.08,0,.17,0,.25-.06a.65.65,0,0,1,.19,0,1.41,1.41,0,0,1,1,.15,2.55,2.55,0,0,1,.68,1,.8.8,0,0,0,.38.43.85.85,0,0,0,.23,0,1.77,1.77,0,0,0,.46,0,.54.54,0,0,0,.21-.08C1016.23,563.94,1015.66,563.27,1015.75,562.83Z" transform="translate(-904.82 -480.97)"/>
  </g>
</svg>
