<svg id="图层_1" data-name="图层 1" xmlns="http://www.w3.org/2000/svg" xmlns:xlink="http://www.w3.org/1999/xlink" viewBox="0 0 139.09 129.61">
  <defs>
    <style>
      .cls-1 {
        fill: url(#未命名的渐变);
      }

      .cls-2 {
        fill: #56408b;
      }

      .cls-3 {
        fill: #f1f2f2;
      }

      .cls-4 {
        fill: #d1d3d4;
      }

      .cls-5 {
        fill: #bcbec0;
      }

      .cls-6 {
        fill: url(#未命名的渐变_2);
      }

      .cls-12, .cls-16, .cls-19, .cls-7 {
        fill: #525d7a;
      }

      .cls-18, .cls-7 {
        opacity: 0.15;
      }

      .cls-11, .cls-12, .cls-16, .cls-26, .cls-7, .cls-8 {
        isolation: isolate;
      }

      .cls-8 {
        fill: #f0f7fd;
        opacity: 0.5;
      }

      .cls-9 {
        fill: #fff;
      }

      .cls-10 {
        fill: #fcc8b2;
      }

      .cls-11, .cls-23, .cls-26 {
        fill: #231f20;
      }

      .cls-11, .cls-22 {
        opacity: 0.3;
      }

      .cls-12 {
        opacity: 0.1;
      }

      .cls-13 {
        fill: #f6f6f6;
      }

      .cls-14 {
        fill: url(#未命名的渐变_3);
      }

      .cls-15 {
        fill: #f8aa8f;
      }

      .cls-16, .cls-20, .cls-26 {
        opacity: 0.2;
      }

      .cls-17 {
        fill: url(#未命名的渐变_4);
      }

      .cls-21 {
        fill: #fdd3c1;
      }

      .cls-24 {
        fill: url(#未命名的渐变_5);
      }

      .cls-25 {
        fill: url(#未命名的渐变_6);
      }

      .cls-27 {
        fill: url(#未命名的渐变_7);
      }

      .cls-28 {
        fill: url(#未命名的渐变_8);
      }

      .cls-29 {
        fill: #bbb3d1;
      }
    </style>
    <linearGradient id="未命名的渐变" x1="974.73" y1="474.68" x2="974.73" y2="596.39" gradientTransform="matrix(1, 0, 0, -1, 0, 1080)" gradientUnits="userSpaceOnUse">
      <stop offset="0" stop-color="#ad8fcf"/>
      <stop offset="0.03" stop-color="#af90cd"/>
      <stop offset="0.42" stop-color="#cd99b8"/>
      <stop offset="0.76" stop-color="#df9eab"/>
      <stop offset="1" stop-color="#e5a0a6"/>
    </linearGradient>
    <linearGradient id="未命名的渐变_2" data-name="未命名的渐变 2" x1="955.45" y1="544.79" x2="985.89" y2="544.79" gradientTransform="matrix(1, 0, 0, -1, 0, 1080)" gradientUnits="userSpaceOnUse">
      <stop offset="0" stop-color="#56408b"/>
      <stop offset="0.14" stop-color="#5c438f"/>
      <stop offset="0.34" stop-color="#6d4b99"/>
      <stop offset="0.55" stop-color="#8858aa"/>
      <stop offset="0.79" stop-color="#af6bc2"/>
      <stop offset="1" stop-color="#d77edb"/>
    </linearGradient>
    <linearGradient id="未命名的渐变_3" data-name="未命名的渐变 3" x1="1013.59" y1="517.68" x2="1025.48" y2="517.68" gradientTransform="matrix(1, 0, 0, -1, -909.67, 601.78)" gradientUnits="userSpaceOnUse">
      <stop offset="0" stop-color="#e5a0a6"/>
      <stop offset="0.4" stop-color="#ecadaa"/>
      <stop offset="1" stop-color="#fcc8b2"/>
    </linearGradient>
    <linearGradient id="未命名的渐变_4" data-name="未命名的渐变 4" x1="1007.37" y1="520.08" x2="1015.86" y2="520.08" gradientTransform="matrix(1, 0, 0, -1, 0, 1080)" xlink:href="#未命名的渐变_3"/>
    <linearGradient id="未命名的渐变_5" data-name="未命名的渐变 5" x1="911.33" y1="517.33" x2="925.3" y2="517.33" gradientTransform="matrix(1, 0, 0, -1, 0, 1080)" xlink:href="#未命名的渐变_3"/>
    <linearGradient id="未命名的渐变_6" data-name="未命名的渐变 6" x1="913.7" y1="520.3" x2="919.84" y2="520.3" gradientTransform="matrix(1, 0, 0, -1, 0, 1080)" xlink:href="#未命名的渐变_3"/>
    <linearGradient id="未命名的渐变_7" data-name="未命名的渐变 7" x1="927.56" y1="475.85" x2="937.77" y2="475.85" gradientTransform="matrix(1, 0, 0, -1, 0, 1080)" xlink:href="#未命名的渐变_3"/>
    <linearGradient id="未命名的渐变_8" data-name="未命名的渐变 8" x1="910.15" y1="476.5" x2="919.57" y2="476.5" gradientTransform="matrix(1, 0, 0, -1, 0, 1080)" xlink:href="#未命名的渐变_3"/>
  </defs>
  <path class="cls-1" d="M1028.3,511.75a20.14,20.14,0,0,1-5,13.32,56.89,56.89,0,1,1-28.54-28.54,20.23,20.23,0,0,1,33.55,15.22Zm1.29-28.14A5.37,5.37,0,1,0,1035,489,5.37,5.37,0,0,0,1029.59,483.61Zm-34.21,8.6a2.27,2.27,0,1,0-2.27-2.27A2.27,2.27,0,0,0,995.38,492.21Z" transform="translate(-909.67 -478.22)"/>
  <g>
    <g>
      <polygon class="cls-2" points="129.41 129.14 117.49 105.65 118.39 105.19 130.5 129.14 129.41 129.14"/>
      <polygon class="cls-2" points="137.87 129.23 125.96 105.74 126.85 105.28 139.09 129.23 137.87 129.23"/>
      <rect class="cls-2" x="119.3" y="107.61" width="8.42" height="1"/>
      <rect class="cls-2" x="122.08" y="113.08" width="8.42" height="1"/>
      <rect class="cls-2" x="124.85" y="118.55" width="8.42" height="1"/>
      <rect class="cls-2" x="127.62" y="124.02" width="8.42" height="1"/>
    </g>
    <g>
      <polygon class="cls-2" points="96.89 129.14 95.8 129.23 107.91 105.19 108.8 105.65 96.89 129.14"/>
      <polygon class="cls-2" points="88.43 129.23 87.25 129.23 99.44 105.28 100.34 105.74 88.43 129.23"/>
      <rect class="cls-2" x="98.57" y="107.61" width="8.42" height="1"/>
      <rect class="cls-2" x="95.8" y="113.08" width="8.42" height="1"/>
      <rect class="cls-2" x="93.03" y="118.55" width="8.42" height="1"/>
      <rect class="cls-2" x="90.25" y="124.02" width="8.42" height="1"/>
    </g>
    <path class="cls-3" d="M1041.66,584.26h-36.47a.16.16,0,0,1-.16-.16V581a.16.16,0,0,1,.16-.16h36.47a.16.16,0,0,1,.16.16v3.11A.16.16,0,0,1,1041.66,584.26Z" transform="translate(-909.67 -478.22)"/>
    <path class="cls-4" d="M1005,582.82v1.27a.16.16,0,0,0,.16.16h36.47a.16.16,0,0,0,.16-.16v-1.27Z" transform="translate(-909.67 -478.22)"/>
  </g>
  <g>
    <g>
      <rect class="cls-5" x="32.05" y="118.21" width="12.02" height="9.68"/>
      <rect class="cls-3" x="29.9" y="127.5" width="16.31" height="2.11"/>
      <path class="cls-2" d="M944.05,601.52h7.35a.25.25,0,0,0,0-.5h-7.35a.25.25,0,0,0,0,.5Z" transform="translate(-909.67 -478.22)"/>
      <path class="cls-2" d="M944.05,603h7.35a.25.25,0,0,0,0-.5h-7.35a.25.25,0,0,0,0,.5Z" transform="translate(-909.67 -478.22)"/>
      <path class="cls-2" d="M944.05,604.44h7.35a.25.25,0,0,0,0-.5h-7.35a.25.25,0,0,0,0,.5Z" transform="translate(-909.67 -478.22)"/>
    </g>
    <g>
      <rect class="cls-5" x="77.77" y="118.21" width="12.02" height="9.68"/>
      <rect class="cls-3" x="75.62" y="127.5" width="16.31" height="2.11"/>
      <path class="cls-2" d="M989.77,601.52h7.35a.25.25,0,0,0,0-.5h-7.35a.25.25,0,0,0,0,.5Z" transform="translate(-909.67 -478.22)"/>
      <path class="cls-2" d="M989.77,603h7.35a.25.25,0,0,0,0-.5h-7.35a.25.25,0,0,0,0,.5Z" transform="translate(-909.67 -478.22)"/>
      <path class="cls-2" d="M989.77,604.44h7.35a.25.25,0,0,0,0-.5h-7.35a.25.25,0,0,0,0,.5Z" transform="translate(-909.67 -478.22)"/>
    </g>
    <g>
      <path class="cls-6" d="M985.89,592.2H955.45V502.32A27.22,27.22,0,0,1,966,480.79L968.3,479a3.87,3.87,0,0,1,4.74,0l2.56,2A26.47,26.47,0,0,1,985.89,502Z" transform="translate(-909.67 -478.22)"/>
      <g>
        <path class="cls-7" d="M968.27,479.05c.07.18,1-.4,1.59-.73a3.94,3.94,0,0,0-1.56.71Z" transform="translate(-909.67 -478.22)"/>
        <path class="cls-7" d="M975.4,480.86,973,479a3.89,3.89,0,0,0-2.26-.8l1,.26c6.61,5.11,9.46,15.36,9.46,23.72v89.5a.49.49,0,0,0,.49.49h3.69a.49.49,0,0,0,.49-.49V502.2A26.92,26.92,0,0,0,975.4,480.86Z" transform="translate(-909.67 -478.22)"/>
      </g>
      <path class="cls-8" d="M973.46,479.36,973,479a3.87,3.87,0,0,0-4.74,0l-.63.49a27.64,27.64,0,0,0-10.14,21.38v91.3h5.6V500.9A27.67,27.67,0,0,1,973.46,479.36Z" transform="translate(-909.67 -478.22)"/>
    </g>
    <g>
      <path class="cls-9" d="M955.44,599.29H940V535.84A28,28,0,0,1,946.42,518h0a1.69,1.69,0,0,1,2.61,0h0a28,28,0,0,1,6.42,17.83v63.45Z" transform="translate(-909.67 -478.22)"/>
      <path class="cls-10" d="M954,527a28,28,0,0,0-5-9h0a1.69,1.69,0,0,0-2.61,0h0a28,28,0,0,0-5,9Z" transform="translate(-909.67 -478.22)"/>
      <path class="cls-7" d="M949,518a1.66,1.66,0,0,0-1.11-.59c3.72,4.88,3.64,12.27,3.64,18.43V599.3h3.89V535.85A28.09,28.09,0,0,0,949,518Z" transform="translate(-909.67 -478.22)"/>
    </g>
    <g>
      <path class="cls-10" d="M999.42,525.24a28,28,0,0,0-3.72-10h0a1.68,1.68,0,0,0-2.58-.37h0a28.65,28.65,0,0,0-6.37,8.59Z" transform="translate(-909.67 -478.22)"/>
      <path class="cls-9" d="M999.67,527.27a29.28,29.28,0,0,1,1.5,8.57v63.45H985.73V535.84a28,28,0,0,1,1.34-8.56Z" transform="translate(-909.67 -478.22)"/>
      <path class="cls-7" d="M987.1,527.18a30.43,30.43,0,0,0-1.37,8.66v63.45h3.89V535.84c0-2.56,0-5.94.24-8.66Z" transform="translate(-909.67 -478.22)"/>
    </g>
    <path class="cls-11" d="M999.17,588.77v-11.9a16.54,16.54,0,0,0-5-11.8,57.63,57.63,0,0,1-6.37-7l-4-5.35V530.16a22.59,22.59,0,0,0-8.72-17.76l-.77-.59a2.83,2.83,0,0,0-1.36-.55c-.35-.34-.33-.34-.68,0a2.83,2.83,0,0,0-1.36.55l-.57.44a23.07,23.07,0,0,0-8.92,18.16v21.77l-4.34,5.87a59.16,59.16,0,0,1-6.37,7,16.54,16.54,0,0,0-5,11.8v11.9h15.71v3.88h22.38v-3.88Z" transform="translate(-909.67 -478.22)"/>
    <g>
      <rect class="cls-5" x="54" y="109.99" width="14.15" height="11.4"/>
      <rect class="cls-9" x="51.47" y="120.92" width="19.2" height="2.48"/>
      <path class="cls-10" d="M944.41,588.32h17.87V549.4l-6.6,8.92a58.11,58.11,0,0,1-6.42,7.07,16,16,0,0,0-4.86,11.48v11.45Z" transform="translate(-909.67 -478.22)"/>
      <polygon class="cls-7" points="46.9 78.9 46.9 110.1 52.61 110.1 52.61 71.18 46.9 78.9"/>
      <path class="cls-10" d="M996.92,588.21H979.05V549.46l6.6,8.88a58.6,58.6,0,0,0,6.42,7,15.88,15.88,0,0,1,4.86,11.43v11.4Z" transform="translate(-909.67 -478.22)"/>
      <polygon class="cls-7" points="75.64 78.9 75.64 110.1 69.93 110.1 69.93 71.18 75.64 78.9"/>
      <path class="cls-9" d="M981.52,592.2H960.2v-63a19.07,19.07,0,0,1,7.41-15.08l2.18-1.68c1.54-1.19.61-1.19,2.15,0l2.38,1.84A18.53,18.53,0,0,1,981.53,529v63.2Z" transform="translate(-909.67 -478.22)"/>
      <path class="cls-12" d="M971.57,513.78l0,0-1.92-1.48-1.72,1.33a19.17,19.17,0,0,0-7.46,15.19v63.41h3.89V528.8A19.18,19.18,0,0,1,971.57,513.78Z" transform="translate(-909.67 -478.22)"/>
      <path class="cls-10" d="M964,517.53l4.18-4.34c.08-.09.85-.53,1-.61,1.86-1.44,1.82-1.26,3.67.17a2.13,2.13,0,0,1,.31.29l4.46,4.38Z" transform="translate(-909.67 -478.22)"/>
      <path class="cls-2" d="M977,537.29a.5.5,0,0,1-.5-.5,5.76,5.76,0,0,0-1.86-4.23.5.5,0,1,1,.68-.74,6.77,6.77,0,0,1,2.18,5A.5.5,0,0,1,977,537.29Z" transform="translate(-909.67 -478.22)"/>
      <path class="cls-2" d="M964.49,537.29a.5.5,0,0,1-.5-.5,6.76,6.76,0,0,1,9.38-6.22.5.5,0,0,1-.39.93,5.76,5.76,0,0,0-8,5.3A.49.49,0,0,1,964.49,537.29Z" transform="translate(-909.67 -478.22)"/>
      <path class="cls-2" d="M966.42,594.16h8.65a.25.25,0,0,0,0-.5h-8.65a.25.25,0,0,0,0,.5Z" transform="translate(-909.67 -478.22)"/>
      <path class="cls-2" d="M966.42,595.88h8.65a.25.25,0,0,0,0-.5h-8.65a.25.25,0,0,0,0,.5Z" transform="translate(-909.67 -478.22)"/>
      <path class="cls-2" d="M966.42,597.6h8.65a.25.25,0,0,0,0-.5h-8.65a.25.25,0,0,0,0,.5Z" transform="translate(-909.67 -478.22)"/>
    </g>
  </g>
  <g>
    <rect class="cls-13" x="1022.68" y="574.65" width="2.78" height="2.87" transform="translate(-1056.28 -2.69) rotate(-24.45)"/>
    <polygon class="cls-14" points="103.92 81.7 106.55 88.15 112.78 98.13 115.81 96.76 109.56 85 104.9 70.07 103.92 81.7"/>
    <polygon class="cls-9" points="112.8 98.04 112.59 98.13 111.6 100.54 111.05 101.38 109.33 101.86 109.33 102.56 111.36 102.6 117.62 99.96 117.75 99.12 116.89 97.16 116.34 97.07 115.92 97.26 115.37 98.68 113.4 99.52 112.8 98.04"/>
    <polygon class="cls-2" points="117.75 99.11 116.89 97.16 116.34 97.07 115.92 97.26 115.37 98.68 113.4 99.52 112.8 98.04 112.59 98.13 111.6 100.54 111.05 101.38 109.33 101.86 109.33 102.04 110.82 102.04 117.75 99.11"/>
    <rect class="cls-13" x="102.95" y="97.88" width="2.78" height="2.87"/>
    <path class="cls-15" d="M1007.37,543l3.61,20.93,1.59,13.24h2.88s.24-12.38-.6-14l.6-14.34h0a9.11,9.11,0,0,0,.27-4.34h0a3.19,3.19,0,0,0-.77-1.56l-.1-.11Z" transform="translate(-909.67 -478.22)"/>
    <path class="cls-16" d="M1016.55,566.91a14.67,14.67,0,0,0-.66-4l0-10.29-1.36-4.36-1,11.63,2.63,6.45Z" transform="translate(-909.67 -478.22)"/>
    <path class="cls-17" d="M1007.37,543l3.61,20.93,1.59,13.24h2.88s.24-12.38-.6-14l.6-14.34h0a9.11,9.11,0,0,0,.27-4.34h0a3.19,3.19,0,0,0-.77-1.56l-.1-.11Z" transform="translate(-909.67 -478.22)"/>
    <polygon class="cls-9" points="102.56 98.9 102.33 98.9 100.45 100.7 97.46 101.83 97.46 102.6 106.19 102.6 106.65 101.88 106.65 99.75 106.19 99.44 105.73 99.44 104.64 100.52 102.51 100.49 102.56 98.9"/>
    <polygon class="cls-2" points="105.73 99.44 104.64 100.52 102.51 100.49 102.56 98.9 102.33 98.9 100.45 100.7 97.51 101.81 106.65 101.81 106.65 99.75 106.19 99.44 105.73 99.44"/>
    <rect class="cls-9" x="102.82" y="46.18" width="2.86" height="2.78"/>
    <path class="cls-7" d="M1012.5,525.36a3.74,3.74,0,0,0,2.3-1.56l-2.51.53Z" transform="translate(-909.67 -478.22)"/>
    <path class="cls-9" d="M1011.74,518.35l-.13,1.54a4.62,4.62,0,0,1-1.13,1.52s.1.41.39.44l0,2a1,1,0,0,0,1,1h.94a3.76,3.76,0,0,0,3.58-2.61l.73-2.26-1.06-2.21-2.65-.15A1.71,1.71,0,0,0,1011.74,518.35Z" transform="translate(-909.67 -478.22)"/>
    <g class="cls-18">
      <path class="cls-19" d="M1013.1,524.81a3.77,3.77,0,0,0,3.24-2.58l.73-2.26-1.06-2.21-2.65-.15a1.66,1.66,0,0,0-1.62.75l-.06.75a4.8,4.8,0,0,0,1,.61,3,3,0,0,1,.52.21,1.46,1.46,0,0,1,.34.61,2.6,2.6,0,0,0,.1.25c.15.35.67.6.66,1a.56.56,0,0,1-.27.42,1.42,1.42,0,0,0-.38.35,1.07,1.07,0,0,0,0,.86,1.17,1.17,0,0,1,.05.86A3.87,3.87,0,0,1,1013.1,524.81Z" transform="translate(-909.67 -478.22)"/>
    </g>
    <path class="cls-10" d="M1011.63,517.13c-.6.71-.08,1.63.51,2.16a4.48,4.48,0,0,0,1.15.73,3,3,0,0,1,.52.21,1.46,1.46,0,0,1,.34.61,2.6,2.6,0,0,0,.1.25c.15.35.67.6.66,1a.56.56,0,0,1-.27.42,1.42,1.42,0,0,0-.38.35,1.07,1.07,0,0,0,0,.86,1.17,1.17,0,0,1,.05.86c-.14.24-.47.39-.65.6s-.47.38-.66.64-.35.88-.63,1.21a6,6,0,0,1-1.21.82,1.61,1.61,0,0,0-.8,1.32c.81-.28,1.82.13,2.51-.38.13-.09.23-.21.35-.31a5.36,5.36,0,0,1,1-.5,2.49,2.49,0,0,0,.86-.72,2.32,2.32,0,0,0,1,0,3.32,3.32,0,0,0,1.4-.38,3.24,3.24,0,0,0,.85-.92l.37-.52c.11-.16.23-.32.33-.48a4.41,4.41,0,0,0,.76-3,6.74,6.74,0,0,0-1.2-2.54l-1.23-1.87a2.51,2.51,0,0,0-.53-.64,2,2,0,0,0-.65-.32,7.23,7.23,0,0,0-2.5-.2A2.85,2.85,0,0,0,1011.63,517.13Z" transform="translate(-909.67 -478.22)"/>
    <path class="cls-9" d="M1008.78,530.49l-4-.57a3.7,3.7,0,0,1-1.94-1l-6.8-6.44-.8-.52-2.32-.93-1.27-1c-.36-.34-.15-.61.2-.57l1,.81.46.19.27-.15L992,518.77c0-.12.26-.31.39-.31l1.43,1.35.32-.3-1.61-1.76c-.21-.3.35-.4.87.08l1,1.44.31-.12-1-2c.09-.14.4.11.54.19a6.39,6.39,0,0,1,1.32,1.9l.54.15.31-.5-.12-.66.88.89-.11,1.39,6.3,5.86,5.65,1.31Z" transform="translate(-909.67 -478.22)"/>
    <g class="cls-18">
      <path class="cls-19" d="M1005.05,529.31a3.7,3.7,0,0,1-1.94-1l-6.8-6.44-.8-.52-2.2-.88,0,0-.46-.19-1-.81c-.35,0-.57.23-.2.57l1.27,1,2.32.93.8.52,6.8,6.44a3.66,3.66,0,0,0,1.94,1l4,.57.06-.65Z" transform="translate(-909.67 -478.22)"/>
    </g>
    <g class="cls-18">
      <path class="cls-19" d="M1011.51,517.35a2.36,2.36,0,0,1,1.41-.88,2.12,2.12,0,0,0-1.29.66,1.07,1.07,0,0,0-.21.41A1.07,1.07,0,0,1,1011.51,517.35Z" transform="translate(-909.67 -478.22)"/>
      <path class="cls-19" d="M1012.37,528a6.32,6.32,0,0,0,1.1-1c.24-.37.23-.88.47-1.28s.41-.45.58-.71.46-.42.57-.67a1.17,1.17,0,0,0-.15-.85,1.08,1.08,0,0,1-.12-.85,1.37,1.37,0,0,1,.33-.39.63.63,0,0,0,.22-.45c0-.4-.58-.59-.78-.92-.05-.08-.08-.16-.13-.23a1.56,1.56,0,0,0-.42-.56,3.05,3.05,0,0,0-.54-.14,5,5,0,0,1-1-.48,5.23,5.23,0,0,0,.82.49,3,3,0,0,1,.52.21,1.46,1.46,0,0,1,.34.61,2.6,2.6,0,0,0,.1.25c.15.35.67.6.66,1a.56.56,0,0,1-.27.42,1.42,1.42,0,0,0-.38.35,1.07,1.07,0,0,0,0,.86,1.17,1.17,0,0,1,0,.86c-.14.24-.47.39-.65.6s-.47.38-.66.64-.35.88-.63,1.21a6,6,0,0,1-1.21.82,1.61,1.61,0,0,0-.8,1.32,4.17,4.17,0,0,1,1.37-.1A2,2,0,0,1,1012.37,528Z" transform="translate(-909.67 -478.22)"/>
    </g>
    <path class="cls-16" d="M1015,542.83l-.1-.11-7.48.22.33,1.93c2.83-.69,5.94,3.22,8.15,1.66a9.11,9.11,0,0,0-.13-2.15A3.29,3.29,0,0,0,1015,542.83Z" transform="translate(-909.67 -478.22)"/>
    <path class="cls-2" d="M1015.5,525.89s2.36.88,2.48,3l-2.84,9.58.8,5.46c-2.49,2.21-6.18-1.5-9.35.86l3-12.15h0a3.15,3.15,0,0,1-.43-2.68l.09-.3,3.11-2.51Z" transform="translate(-909.67 -478.22)"/>
    <g class="cls-20">
      <path class="cls-19" d="M1010,532.19l-.57.1a2.5,2.5,0,0,0,.21.35l-3,12.15a3.67,3.67,0,0,1,.73-.43l2.94-11.72A2.51,2.51,0,0,1,1010,532.19Z" transform="translate(-909.67 -478.22)"/>
      <path class="cls-19" d="M1009.48,544c1.63.09,3.26.78,4.69.67C1012.71,544.56,1011.08,543.89,1009.48,544Z" transform="translate(-909.67 -478.22)"/>
    </g>
    <path class="cls-16" d="M1014.85,527.8l-3.42.14-2.13,1.72-.09.3a3.14,3.14,0,0,0,.22,2.33l4.7-.85Z" transform="translate(-909.67 -478.22)"/>
    <polygon class="cls-2" points="105.18 48.96 99.39 49.21 99.11 52.67 105.47 53.14 105.18 48.96"/>
    <path class="cls-10" d="M1019.94,523a1.84,1.84,0,0,0-.31-1.24,1.73,1.73,0,0,0-.48-.36,2.88,2.88,0,0,0-.46-.24,2.6,2.6,0,0,0-2.2.44,5.06,5.06,0,0,0-1.13.88,2.58,2.58,0,0,0-.41.57.63.63,0,0,0-.07.62,16.5,16.5,0,0,0,.6,2.22,2.2,2.2,0,0,0,1.68,1.41,8,8,0,0,0,.25,3.75,6.11,6.11,0,0,0,.61-1c.3-.51.59-1,.87-1.53a10.67,10.67,0,0,0,.9-2A11,11,0,0,0,1019.94,523Z" transform="translate(-909.67 -478.22)"/>
    <path class="cls-21" d="M1019.94,523a4.53,4.53,0,0,0,0-.52,3.27,3.27,0,0,0,0-.54,6.74,6.74,0,0,0-1.2-2.54l-1.23-1.87a2.51,2.51,0,0,0-.53-.64,2,2,0,0,0-.65-.32,7.23,7.23,0,0,0-2.5-.2,2.92,2.92,0,0,0-2.14.75,1,1,0,0,0-.24.51,3.19,3.19,0,0,1,2-.62,7.22,7.22,0,0,1,2.5.16,2,2,0,0,1,.66.31,2.47,2.47,0,0,1,.53.63c.42.62.84,1.23,1.25,1.85a6.66,6.66,0,0,1,1.23,2.52,5,5,0,0,1,.05.53,4.55,4.55,0,0,1,0,.52,11.85,11.85,0,0,1-.08,3.57,6.86,6.86,0,0,1-.27.76,8.22,8.22,0,0,0,.54-1.31A11.08,11.08,0,0,0,1019.94,523Z" transform="translate(-909.67 -478.22)"/>
  </g>
  <path class="cls-2" d="M924.5,562.32a.65.65,0,0,1-.14.71l-1.18,1.18a.78.78,0,0,0,0,1.1l1.91,1.91a.78.78,0,0,0,1.1,0l1.17-1.17a.67.67,0,0,1,.74-.12l.46.19a.65.65,0,0,1,.43.61v1.66a.78.78,0,0,0,.77.78h2.7a.78.78,0,0,0,.78-.77v-1.67a.65.65,0,0,1,.41-.6l.51-.21a.65.65,0,0,1,.71.14l1.18,1.18a.78.78,0,0,0,1.1,0l1.91-1.91a.78.78,0,0,0,0-1.1l-1.17-1.17a.67.67,0,0,1-.12-.74c.07-.15.13-.3.19-.46a.65.65,0,0,1,.61-.43h1.66a.78.78,0,0,0,.78-.77V558a.78.78,0,0,0-.77-.78h-1.67a.65.65,0,0,1-.6-.41l-.2-.51a.65.65,0,0,1,.14-.71l1.18-1.18a.78.78,0,0,0,0-1.1l-1.9-1.92a.78.78,0,0,0-1.1,0l-1.18,1.17a.67.67,0,0,1-.74.12l-.48-.2a.65.65,0,0,1-.43-.61v-1.66a.78.78,0,0,0-.78-.78h-2.7a.78.78,0,0,0-.78.78v1.67a.65.65,0,0,1-.41.6l-.51.21a.65.65,0,0,1-.71-.14l-1.18-1.18a.78.78,0,0,0-1.1,0l-1.91,1.91a.78.78,0,0,0,0,1.1l1.17,1.17a.65.65,0,0,1,.12.74c-.07.15-.13.3-.19.46a.65.65,0,0,1-.61.43H922a.78.78,0,0,0-.78.78v2.7a.78.78,0,0,0,.78.78h2.12S924.33,561.91,924.5,562.32Zm8,.53a3.83,3.83,0,1,1,2.38-4.26A3.83,3.83,0,0,1,932.51,562.85Z" transform="translate(-909.67 -478.22)"/>
  <g>
    <rect class="cls-13" x="18.45" y="122.97" width="1.58" height="1.73"/>
    <rect class="cls-13" x="912.28" y="600.43" width="1.73" height="1.58" transform="translate(-939.08 676.99) rotate(-63.81)"/>
    <polygon class="cls-2" points="7 93.64 9.63 99.35 15.12 107.61 17.59 123.53 20.82 123.53 19.77 108.5 16.46 97.77 15.64 93.64 7 93.64"/>
    <g class="cls-22">
      <path class="cls-23" d="M918.28,575.36l7.5-1.15.36,1.78.39,1.27a25.45,25.45,0,0,0-1.76,8.53l-5.46-8.22Z" transform="translate(-909.67 -478.22)"/>
    </g>
    <rect class="cls-9" x="3.83" y="72.42" width="3.3" height="3.83"/>
    <path class="cls-24" d="M917.18,553.47l-4.2.21v.83s-1.73,2.33-1.65,3.53,4.66,13.37,5.33,13.82h8.64s-3.46-9.09-3.68-10.06c0,0-1-4.88-2.93-6.38C918.7,555.41,917.24,554.38,917.18,553.47Z" transform="translate(-909.67 -478.22)"/>
    <path class="cls-16" d="M913,554.51v-.83h1.19v.83s-1.73,2.33-1.65,3.53,4.66,13.37,5.33,13.82h-1.19c-.68-.45-5.26-12.62-5.33-13.82S913,554.51,913,554.51Z" transform="translate(-909.67 -478.22)"/>
    <path class="cls-16" d="M916.91,563l2.48-3.18-2.25-1.94c-.77-.8-1.35-.66-2.15.11l-.09.14c-.8.77-1.12,1.32-.8,2.15Z" transform="translate(-909.67 -478.22)"/>
    <path class="cls-25" d="M917.28,562.64l2.56-3.34-2.8-2.14a2,2,0,0,0-2.77.37l-.15.2a2,2,0,0,0,.37,2.77Z" transform="translate(-909.67 -478.22)"/>
    <path class="cls-16" d="M922.64,564.73c.37,1,.79,2.15,1.19,3.22l-2-.92-5-4,1.94-2.53Z" transform="translate(-909.67 -478.22)"/>
    <path class="cls-9" d="M930.69,570.08l-8.14-3.83-5-4,1.94-2.53,4.06,4.53,7.37,4.61-.29.35,1.48.07c.63,0,2.35-.22,3,.49l-3,.33h-1.49Z" transform="translate(-909.67 -478.22)"/>
    <path class="cls-7" d="M918.12,561.54l5,4,8.3,4.2,2.09-.09.8-.31a1.64,1.64,0,0,1,.88.41l-3,.33h-1.5l-8.14-3.83-5-4Z" transform="translate(-909.67 -478.22)"/>
    <path class="cls-2" d="M916.67,571.86a10.29,10.29,0,0,0,0,4.21,9.27,9.27,0,0,0,1.28,2.62l-.76,8-5.71,13.78,3.08.92,4.2-7.16,2.48-4.84,4.81-13.78-.75-3.77h-8.63Z" transform="translate(-909.67 -478.22)"/>
    <path class="cls-26" d="M917.56,572.16a10.29,10.29,0,0,0,0,4.21,9.27,9.27,0,0,0,1.28,2.62l-.76,8-5.7,13.75-.91-.27,5.71-13.78.76-8a9.09,9.09,0,0,1-1.28-2.62,10.3,10.3,0,0,1,0-4.21h8.64l.06.3Z" transform="translate(-909.67 -478.22)"/>
    <path class="cls-9" d="M912.19,551.48H917a1.36,1.36,0,0,0,1.36-1.36v-1.55h1c.21-1.59-1.27-2.74-1.52-3.55a1.29,1.29,0,0,1,.54-1.66H912.2v8.12Z" transform="translate(-909.67 -478.22)"/>
    <rect class="cls-21" x="6.52" y="93.19" width="9.51" height="1.34"/>
    <path class="cls-9" d="M931.11,569.59l1-1a.35.35,0,0,0,.15-.47h0a.35.35,0,0,0-.47-.15l-1.29.65a.35.35,0,0,0-.15.47h0C930.43,569.31,930.94,569.68,931.11,569.59Z" transform="translate(-909.67 -478.22)"/>
    <path class="cls-27" d="M927.56,602.35h2.87l1.2,1.35h2.46a4.13,4.13,0,0,1,3.68,2.26H927.56Z" transform="translate(-909.67 -478.22)"/>
    <path class="cls-9" d="M928.12,604.16a.9.9,0,1,0,.9-.9A.9.9,0,0,0,928.12,604.16Z" transform="translate(-909.67 -478.22)"/>
    <rect class="cls-3" x="17.48" y="127.75" width="11.02" height="0.85"/>
    <path class="cls-28" d="M911.55,601l2.65,1.11.58,1.71,2.87.05c1.43.6,1.8.63,1.92,2.17h-5.32l-4.1-1.72Z" transform="translate(-909.67 -478.22)"/>
    <path class="cls-9" d="M911.36,602.86a.9.9,0,1,0,1.18-.48A.9.9,0,0,0,911.36,602.86Z" transform="translate(-909.67 -478.22)"/>
    <rect class="cls-3" x="4.11" y="127.69" width="6" height="0.85"/>
    <rect class="cls-3" x="911.48" y="603.28" width="0.85" height="4.48" transform="translate(-913.42 727.15) rotate(-66.81)"/>
    <g class="cls-18">
      <path class="cls-19" d="M913,551.48h-.79v-8.11h6.13a1.25,1.25,0,0,0-.6,1.38,2,2,0,0,1-1.09.12,1.19,1.19,0,0,0-.67.11,2.17,2.17,0,0,0-1,1,7.78,7.78,0,0,0-.3,1.94c0,.46-.24,1.44,0,1.83s.85.12,1.18,0c.68-.29,1.21-.9,2.19-.92a.46.46,0,0,1,.27.12v1.16A1.36,1.36,0,0,1,917,551.5h-.17v1.31h-.33c-.76,0-1.4.25-2.1-.15s-.52-1.47-.47-2.22c0-.49,0-1,.07-1.49,0-.31,0-.66-.27-.87-.55-.37-1.09.28-1.1.81a8.3,8.3,0,0,0,.09,1.87C912.73,550.93,912.9,551.22,913,551.48Z" transform="translate(-909.67 -478.22)"/>
    </g>
    <path class="cls-2" d="M918.21,548.55c-1,0-1.51.63-2.19.92a.79.79,0,0,1-1-.14c-.26-.39-.1-1.26-.06-1.73a7,7,0,0,1,.3-1.77c.2-.41.38-1,.82-1.16a1.18,1.18,0,0,1,.67-.11,2.43,2.43,0,0,0,2.2-.91,2.49,2.49,0,0,0,.41-.45,2.42,2.42,0,0,0,.24-1.25.45.45,0,0,0,0-.23c-.06-.1-.51.13-.6.2a3,3,0,0,1-2.22.6c-.68-.14-1.16-.73-1.86-.7a3,3,0,0,0-1.9,1.11,1.53,1.53,0,0,1-.64,0,1.37,1.37,0,0,0-1.23.4c-.39.45-.25,1.21-.26,1.78s.1,1.11.09,1.67a8.32,8.32,0,0,0,.22,2.38c.08.29,0,.58.13.83a9.27,9.27,0,0,1,.36,1,1.06,1.06,0,0,0,.31.49c.19.14,1,.23,1.12,0s0-.87-.08-1.14a8.12,8.12,0,0,1-.29-1.83c0-.53.55-1.18,1.1-.81a1,1,0,0,1,.4.88c0,.48,0,1-.09,1.48,0,.74-.23,1.75.57,2.23s1.14.15,1.9.14a2,2,0,0,0,1.06-.22,1.87,1.87,0,0,0,.79-1.06c.09-.3.23-.61.32-.92a3.28,3.28,0,0,0,0-1C918.82,549,918.51,548.54,918.21,548.55Z" transform="translate(-909.67 -478.22)"/>
    <path class="cls-29" d="M919.73,542.32a.28.28,0,0,0-.31-.09.88.88,0,0,0-.29.18,3.13,3.13,0,0,1-2.22.72c-.68-.14-1.15-.88-1.86-.85a3.32,3.32,0,0,0-2,1.13.85.85,0,0,1-.47,0,1.54,1.54,0,0,0-1.27.57,1.26,1.26,0,0,0-.27.79,2,2,0,0,1,.27-1.39,1.36,1.36,0,0,1,1.21-.47,1.07,1.07,0,0,0,.53-.07,3.14,3.14,0,0,1,2-1c.7,0,1.17.57,1.85.71a3.13,3.13,0,0,0,2.22-.72,1.08,1.08,0,0,1,.29-.18.28.28,0,0,1,.31.09.45.45,0,0,1,0,.23c0,.15,0,.29,0,.44A.07.07,0,0,0,919.73,542.32Z" transform="translate(-909.67 -478.22)"/>
  </g>
</svg>
